<svg xmlns="http://www.w3.org/2000/svg" version="1.1" xmlns:xlink="http://www.w3.org/1999/xlink" xmlns:svgjs="http://svgjs.dev/svgjs" width="1000" height="1000" viewBox="0 0 1000 1000"><rect width="1000" height="1000" fill="#000000"></rect><g transform="matrix(0.7,0,0,0.7,149.575760904694,341.0306031963996)"><svg viewBox="0 0 396 180" data-background-color="#ffffff" preserveAspectRatio="xMidYMid meet" height="454" width="1000" xmlns="http://www.w3.org/2000/svg" xmlns:xlink="http://www.w3.org/1999/xlink"><defs></defs><g id="tight-bounds" transform="matrix(1,0,0,1,0.23999863407414068,0.039305930296009706)"><svg viewBox="0 0 395.52 179.92138813940798" height="179.92138813940798" width="395.52"><g><svg viewBox="0 0 395.52 179.92138813940798" height="179.92138813940798" width="395.52"><g><svg viewBox="0 0 672.9306074806839 306.1150106680313" height="179.92138813940798" width="395.52"><g transform="matrix(1,0,0,1,277.4106074806839,83.20871197788473)"><svg viewBox="0 0 395.52 139.69758671226182" height="139.69758671226182" width="395.52"><g><svg viewBox="0 0 395.52 139.69758671226182" height="139.69758671226182" width="395.52"><g><svg viewBox="0 0 395.52 139.69758671226182" height="139.69758671226182" width="395.52"><g transform="matrix(1,0,0,1,0,0)"><svg width="395.52" viewBox="3.6500000953674316 -35.400001525878906 102.3499984741211 36.150001525878906" height="139.69758671226182" data-palette-color="#6b7280"><path d="M23.1-5L20.05-5Q19.55-6.25 18.63-8.3 17.7-10.35 16.55-12.78 15.4-15.2 14.2-17.78 13-20.35 11.9-22.6 10.8-24.85 9.95-26.55 9.1-28.25 8.7-28.95L8.7-28.95Q8.05-22.7 7.68-15.38 7.3-8.05 7 0L7 0 3.65 0Q4.1-9.45 4.67-18.1 5.25-26.75 6.1-34.65L6.1-34.65 9.1-34.65Q10.6-32.15 12.3-28.88 14-25.6 15.68-22.08 17.35-18.55 18.93-15.13 20.5-11.7 21.7-8.95L21.7-8.95Q22.9-11.7 24.48-15.13 26.05-18.55 27.73-22.08 29.4-25.6 31.1-28.88 32.8-32.15 34.3-34.65L34.3-34.65 37.15-34.65Q38-26.75 38.58-18.1 39.15-9.45 39.6 0L39.6 0 36.15 0Q35.85-8.05 35.48-15.38 35.1-22.7 34.45-28.95L34.45-28.95Q34.05-28.25 33.2-26.55 32.35-24.85 31.25-22.6 30.15-20.35 28.95-17.78 27.75-15.2 26.6-12.78 25.45-10.35 24.53-8.3 23.6-6.25 23.1-5L23.1-5ZM78.85-17.35L78.85-17.35Q78.85-12.9 77.55-9.5 76.25-6.1 74.02-3.83 71.8-1.55 68.85-0.4 65.9 0.75 62.6 0.75L62.6 0.75Q59.3 0.75 56.35-0.4 53.4-1.55 51.17-3.83 48.95-6.1 47.65-9.5 46.35-12.9 46.35-17.35L46.35-17.35Q46.35-21.8 47.65-25.18 48.95-28.55 51.17-30.83 53.4-33.1 56.35-34.25 59.3-35.4 62.6-35.4L62.6-35.4Q65.9-35.4 68.85-34.25 71.8-33.1 74.02-30.83 76.25-28.55 77.55-25.18 78.85-21.8 78.85-17.35ZM75.25-17.35L75.25-17.35Q75.25-20.85 74.35-23.63 73.45-26.4 71.8-28.35 70.15-30.3 67.82-31.33 65.5-32.35 62.6-32.35L62.6-32.35Q59.7-32.35 57.37-31.33 55.05-30.3 53.4-28.35 51.75-26.4 50.85-23.63 49.95-20.85 49.95-17.35L49.95-17.35Q49.95-13.85 50.85-11.08 51.75-8.3 53.4-6.35 55.05-4.4 57.37-3.35 59.7-2.3 62.6-2.3L62.6-2.3Q65.5-2.3 67.82-3.35 70.15-4.4 71.8-6.35 73.45-8.3 74.35-11.08 75.25-13.85 75.25-17.35ZM93.9-2.2L93.9-2.2Q97.95-2.2 100.2-3.68 102.45-5.15 102.45-8.45L102.45-8.45Q102.45-10.35 101.72-11.63 101-12.9 99.8-13.78 98.6-14.65 97.05-15.28 95.5-15.9 93.8-16.6L93.8-16.6Q91.65-17.45 89.95-18.35 88.25-19.25 87.05-20.38 85.85-21.5 85.22-22.95 84.6-24.4 84.6-26.35L84.6-26.35Q84.6-30.8 87.55-33.1 90.5-35.4 95.75-35.4L95.75-35.4Q97.15-35.4 98.5-35.2 99.85-35 101.02-34.68 102.2-34.35 103.17-33.95 104.15-33.55 104.8-33.1L104.8-33.1 103.6-30.25Q102.15-31.25 100.07-31.85 98-32.45 95.6-32.45L95.6-32.45Q93.95-32.45 92.57-32.13 91.2-31.8 90.2-31.08 89.2-30.35 88.62-29.25 88.05-28.15 88.05-26.6L88.05-26.6Q88.05-25 88.65-23.9 89.25-22.8 90.32-22 91.4-21.2 92.85-20.55 94.3-19.9 96-19.2L96-19.2Q98.05-18.35 99.87-17.5 101.7-16.65 103.05-15.5 104.4-14.35 105.2-12.7 106-11.05 106-8.65L106-8.65Q106-3.95 102.72-1.6 99.45 0.75 93.85 0.75L93.85 0.75Q91.85 0.75 90.2 0.5 88.55 0.25 87.25-0.13 85.95-0.5 85.05-0.9 84.15-1.3 83.65-1.6L83.65-1.6 84.75-4.55Q85.25-4.25 86.1-3.85 86.95-3.45 88.1-3.08 89.25-2.7 90.7-2.45 92.15-2.2 93.9-2.2Z" opacity="1" transform="matrix(1,0,0,1,0,0)" fill="#ffffff" class="undefined-text-0" data-fill-palette-color="primary" id="text-0"></path></svg></g></svg></g></svg></g></svg></g><g><svg viewBox="0 0 244.43135999999998 306.1150106680313" height="306.1150106680313" width="244.43135999999998"><g><svg xmlns="http://www.w3.org/2000/svg" xmlns:xlink="http://www.w3.org/1999/xlink" version="1.1" x="0" y="0" viewBox="10.075326919555664 0 79.84951782226562 100" enable-background="new 0 0 100 100" xml:space="preserve" height="306.1150106680313" width="244.43135999999998" class="icon-icon-0" data-fill-palette-color="accent" id="icon-0"><path d="M75.17 63.706L40.989 41.989l11.879-18.458c5.586 1.322 8.929-7.973 3.477-10.31-5.063-2.171-10.008 5.772-5.69 9.229L39.77 39.365l-4.751-20.094c5.647-1.805 7.16-6.36 6.652-10.111C41.061 4.658 37.381 0 32.278 0c-0.84 0-1.692 0.131-2.532 0.386-5.159 1.57-7.214 7.319-6.528 11.931 0.695 4.674 3.815 7.578 8.143 7.578 0 0 0 0 0 0 0.413 0 0.838-0.032 1.271-0.086l4.694 19.854L20.198 28.781c5.068-6.658-5.554-11.664-9.138-5.609-3.354 5.666 2.551 10.758 7.351 7.371l19.19 12.191L27.1 59.052c-4.263-2.822-7.383 3.962-3.453 6.319 3.626 2.176 6.934-1.367 5.193-4.505l9.873-15.341 9.435 39.898c-3.474 1.234-4.692 4.977-4.325 8.111C44.27 97.342 46.817 100 50.019 100h0.001c0.6 0 1.224-0.088 1.855-0.264 4.312-1.198 6.087-5.363 5.61-8.859-0.49-3.598-3.051-5.923-6.522-5.923-0.135 0-0.272 0.007-0.41 0.013l-9.462-40.015 33.004 20.969c-2.779 8.737 11.759 14.103 15.292 5.726C92.666 63.867 80.081 56.373 75.17 63.706zM32.494 8.594c-0.155-0.657-0.814-1.062-1.471-0.908-0.657 0.155-1.064 0.814-0.909 1.471l2.016 8.523c-0.261 0.025-0.519 0.042-0.767 0.042 0 0 0 0-0.001 0-4.771-0.001-5.794-4.382-5.994-5.726-0.552-3.713 1.017-8.315 5.011-9.531 0.635-0.193 1.275-0.291 1.9-0.291 3.915 0 6.755 3.699 7.239 7.277 0.492 3.635-1.37 6.475-4.999 7.706L32.494 8.594zM55.333 91.17c0.349 2.562-0.927 5.607-4.04 6.473-0.442 0.123-0.871 0.186-1.273 0.186l0 0c-2.421-0.001-3.773-2.284-4.039-4.547-0.266-2.266 0.482-4.785 2.673-5.716l1.327 5.61c0.133 0.562 0.635 0.941 1.189 0.941 0.093 0 0.188-0.01 0.282-0.032 0.657-0.155 1.063-0.814 0.908-1.472l-1.296-5.481C53.808 87.184 55.069 89.24 55.333 91.17z" fill="#ffffff" data-fill-palette-color="accent"></path></svg></g></svg></g></svg></g></svg></g></svg><rect width="395.52" height="179.92138813940798" fill="none" stroke="none" visibility="hidden"></rect></g></svg></g></svg>